<svg width="20" height="20" viewBox="0 0 20 20" fill="none" xmlns="http://www.w3.org/2000/svg">
<path d="M3.75 20C3.0625 20 2.47417 19.7826 1.985 19.3478C1.495 18.9122 1.25 18.3889 1.25 17.7778V3.33333H0V1.11111H6.25V0H13.75V1.11111H20V3.33333H18.75V17.7778C18.75 18.3889 18.5054 18.9122 18.0163 19.3478C17.5263 19.7826 16.9375 20 16.25 20H3.75ZM16.25 3.33333H3.75V17.7778H16.25V3.33333ZM6.25 15.5556H8.75V5.55556H6.25V15.5556ZM11.25 15.5556H13.75V5.55556H11.25V15.5556ZM3.75 3.33333V17.7778V3.33333Z" fill="#D90D32"/>
</svg>
