<svg width="20" height="20" viewBox="0 0 20 20" fill="none" xmlns="http://www.w3.org/2000/svg">
<path d="M1.95122 20C1.41463 20 0.955122 19.809 0.572683 19.427C0.190894 19.0457 0 18.5871 0 18.0512V4.40926C0 3.87332 0.190894 3.41437 0.572683 3.0324C0.955122 2.65108 1.41463 2.46041 1.95122 2.46041H10.6585L8.70732 4.40926H1.95122V18.0512H15.6098V11.2789L17.561 9.33008V18.0512C17.561 18.5871 17.3701 19.0457 16.9883 19.427C16.6059 19.809 16.1463 20 15.6098 20H1.95122ZM12.8537 3.02071L14.2439 4.3849L7.80488 10.8161V12.2046H9.17073L15.6341 5.74909L17.0244 7.11328L10.561 13.5688C10.3821 13.7475 10.175 13.8897 9.93951 13.9956C9.70341 14.1009 9.45528 14.1535 9.19512 14.1535H6.82927C6.55285 14.1535 6.3213 14.0603 6.13463 13.8738C5.94732 13.6867 5.85366 13.4551 5.85366 13.179V10.8161C5.85366 10.5562 5.90244 10.3084 6 10.0726C6.09756 9.83743 6.23577 9.63053 6.41463 9.45189L12.8537 3.02071ZM17.0244 7.11328L12.8537 3.02071L15.2927 0.584653C15.6829 0.194884 16.1506 0 16.6956 0C17.24 0 17.6992 0.194884 18.0732 0.584653L19.439 1.9732C19.813 2.34673 20 2.80146 20 3.33739C20 3.87332 19.813 4.32805 19.439 4.70158L17.0244 7.11328Z" fill="#F2E6D8"/>
</svg>
